<svg width="1024" height="1024" viewBox="0 0 1024 1024" fill="none" xmlns="http://www.w3.org/2000/svg">
<path fill-rule="evenodd" clip-rule="evenodd" d="M834.492 257C839.644 257 843.839 261.094 843.995 266.204L844 266.5V757.497C844 758.908 843.686 760.301 843.08 761.575C840.87 766.221 835.375 768.25 830.691 766.206L830.411 766.078L708.498 708.198C702.818 705.501 699.155 699.841 699.005 693.582L699 693.181V322.45C699 315.815 702.946 309.829 709.016 307.198L709.375 307.047L830.912 257.699C832.049 257.237 833.265 257 834.492 257ZM189.508 257C190.735 257 191.951 257.237 193.088 257.699L314.625 307.047C320.897 309.594 325 315.685 325 322.45V693.181C325 699.599 321.303 705.444 315.502 708.198L193.589 766.078C188.846 768.33 183.174 766.314 180.92 761.575C180.314 760.301 180 758.908 180 757.497V266.5C180 261.253 184.257 257 189.508 257ZM522.712 362.872L635.288 427.904C641.917 431.733 646 438.81 646 446.468V576.532C646 584.19 641.917 591.267 635.288 595.096L522.712 660.128C516.083 663.957 507.917 663.957 501.288 660.128L388.712 595.096C382.083 591.267 378 584.19 378 576.532V446.468C378 438.81 382.083 431.733 388.712 427.904L501.288 362.872C507.917 359.043 516.083 359.043 522.712 362.872Z" fill="white"/>
</svg>
